<svg xmlns="http://www.w3.org/2000/svg" viewBox="0 0 900 760" role="img" aria-labelledby="t d">
  <title id="t">Stylized earthquake scene</title><desc id="d">Night city, mountains and orange seismic waves.</desc>
  <defs>
    <linearGradient id="sky" x1="0" y1="0" x2="0" y2="1"><stop stop-color="#101a26"/><stop offset="1" stop-color="#071018"/></linearGradient>
    <linearGradient id="land" x1="0" y1="0" x2="1" y2="1"><stop stop-color="#1b2a35"/><stop offset="1" stop-color="#0c131a"/></linearGradient>
    <linearGradient id="quake" x1="0" y1="0" x2="1" y2="0"><stop stop-color="#ffca57"/><stop offset=".5" stop-color="#ff6b2c"/><stop offset="1" stop-color="#ffca57"/></linearGradient>
    <filter id="glow"><feGaussianBlur stdDeviation="8" result="b"/><feMerge><feMergeNode in="b"/><feMergeNode in="SourceGraphic"/></feMerge></filter>
  </defs>
  <rect width="900" height="760" rx="48" fill="url(#sky)"/>
  <circle cx="702" cy="126" r="68" fill="#ffca57" opacity=".08"/>
  <circle cx="702" cy="126" r="42" fill="#ffca57" opacity=".08"/>
  <path d="M0 405 130 270 230 350 390 205 520 340 675 230 900 418V760H0Z" fill="#13202b"/>
  <path d="M0 478 165 360 298 448 470 332 621 438 760 349 900 455V760H0Z" fill="url(#land)"/>
  <g fill="#1e2b35">
    <rect x="55" y="430" width="92" height="160" rx="4"/><rect x="165" y="395" width="122" height="195" rx="4"/><rect x="310" y="447" width="87" height="143" rx="4"/>
    <rect x="430" y="385" width="115" height="205" rx="4"/><rect x="570" y="423" width="98" height="167" rx="4"/><rect x="695" y="370" width="138" height="220" rx="4"/>
  </g>
  <g fill="#ffca57" opacity=".8">
    <rect x="75" y="456" width="15" height="22"/><rect x="107" y="456" width="15" height="22"/><rect x="187" y="423" width="18" height="24"/><rect x="222" y="423" width="18" height="24"/><rect x="187" y="465" width="18" height="24"/>
    <rect x="452" y="410" width="18" height="24"/><rect x="491" y="410" width="18" height="24"/><rect x="452" y="454" width="18" height="24"/><rect x="718" y="399" width="18" height="24"/><rect x="755" y="399" width="18" height="24"/><rect x="792" y="399" width="18" height="24"/>
  </g>
  <path d="M0 605H185l25-23 26 44 36-76 32 58h70l18-19 24 33 24-81 39 68h72l26-31 28 45 41-112 42 96h192" fill="none" stroke="url(#quake)" stroke-width="8" stroke-linejoin="round" filter="url(#glow)"/>
  <path d="M471 592 437 760M482 590 531 760" stroke="#ff6b2c" stroke-width="5" opacity=".7"/>
  <path d="M471 592 457 636l34 23-28 39 40 24" fill="none" stroke="#ffca57" stroke-width="3" opacity=".7"/>
  <g fill="#fff" opacity=".55" font-family="Arial, sans-serif" font-size="20">
    <text x="58" y="82">WESTERN VENEZUELA · EDUCATIONAL VISUAL</text>
  </g>
</svg>
